<svg id="Layer_1" data-name="Layer 1" xmlns="http://www.w3.org/2000/svg" viewBox="0 0 100 100"><defs><style>.cls-1{fill:#329f6f;fill-rule:evenodd;}</style></defs><title>icon_email</title><path class="cls-1" d="M26.44,23.45H73.56a8.52,8.52,0,0,1,6,2.41L50,53.56,20.53,25.83A8.53,8.53,0,0,1,26.44,23.45Z"/><path class="cls-1" d="M17.88,68V32a8.52,8.52,0,0,1,1.3-4.52L39.16,47,19.93,73.54A8.54,8.54,0,0,1,17.88,68Z"/><path class="cls-1" d="M73.56,76.55H26.44a8.53,8.53,0,0,1-5-1.62L40.76,48.57,50,57.45l9.2-8.67L78.61,74.89A8.5,8.5,0,0,1,73.56,76.55Z"/><path class="cls-1" d="M82.12,68a8.51,8.51,0,0,1-2,5.55L60.85,47l20-19.54A8.53,8.53,0,0,1,82.12,32Z"/></svg>