<svg id="Layer_1" data-name="Layer 1" xmlns="http://www.w3.org/2000/svg" viewBox="0 0 100 100"><defs><style>.cls-1,.cls-2{fill:#fff;}.cls-1{opacity:0.25;}</style></defs><title>icon_simbol_white</title><path class="cls-1" d="M26.4,71.42a3,3,0,0,1,2.2-1.35,14,14,0,0,1,8,.72,60.58,60.58,0,0,0,7,2.17,10.41,10.41,0,0,1,2.15.76,15.41,15.41,0,0,0,12.09.81c1.53-.5,3.05-1,4.55-1.6.4-.16.69-.62,1-.94a5.46,5.46,0,0,0-1.34-.23c-1.36.11-2.71.31-4.06.44a16,16,0,0,1-9.42-1.74A8.3,8.3,0,0,1,45,66.54a4,4,0,0,1-.32-1.31,1.36,1.36,0,0,1,1.57-1.6,4.55,4.55,0,0,1,1.87.57,12.15,12.15,0,0,0,7.23,1.47A18.34,18.34,0,0,0,61,64.5,27,27,0,0,1,68.35,63a20.59,20.59,0,0,0,5-1,11.21,11.21,0,0,1,6.39-.58,6.46,6.46,0,0,1,3.73,2.4,12.45,12.45,0,0,0,5.45,4,.92.92,0,0,1,.72.93c0,1.59-6.87,13.11-14.78,15.5A20.77,20.77,0,0,0,69,87.4a22.84,22.84,0,0,1-3.32,2c-2,1-4.09.59-6.12-.21-2.22-.87-4.46-1.71-6.72-2.48-1.32-.45-2.7-.75-4.06-1.09A17.45,17.45,0,0,1,42.09,82c-2.19-1.76-4.42-3.46-6.65-5.18A19,19,0,0,0,29,73.51a4.21,4.21,0,0,1-2.57-1.59Z"/><path class="cls-2" d="M52.38,88.81a38.77,38.77,0,0,1-6.27.06l-1.57-.14L43,88.5l-.39-.06-.39-.07-.78-.15-.78-.15-.77-.19c-1-.23-2-.56-3-.87l-1.49-.54c-.25-.08-.49-.2-.74-.3l-.73-.31A38.27,38.27,0,0,1,23.19,79l-.59-.54-.3-.27L22,77.9l-1.13-1.14-1.07-1.19c-.18-.2-.35-.41-.52-.61l-.51-.62a38.65,38.65,0,0,1-6.26-11.19l-.26-.76L12.14,62l-.07-.19L12,61.61l-.45-1.55c0-.13-.07-.26-.1-.39l-.09-.39-.19-.79C11,58,11,57.44,10.86,56.91a37.54,37.54,0,0,1-.63-6.42v-.4c0-.13,0-.27,0-.4l0-.81,0-.81c0-.13,0-.27,0-.4l0-.4c0-.54.08-1.07.13-1.61l.21-1.6a41.9,41.9,0,0,1,1.47-6.28,40.56,40.56,0,0,1,15-20.35l.66-.46c.22-.15.43-.31.66-.45l1.35-.85,1.39-.79.35-.2.36-.18.71-.36.72-.36.73-.32c.49-.21,1-.44,1.47-.62l.75-.29.37-.14.38-.14,1.52-.5a42,42,0,0,1,6.23-1.38l1.58-.19.4,0,.4,0,.8-.05.4,0h1.19c.53,0,1.06,0,1.59,0l1.59.06,1.59.14.4,0,.39.05.79.11.79.11.78.15.78.15.39.07L59,11l1.55.37,1.53.45.38.11.38.13.75.26a40,40,0,0,1,5.79,2.6,41.37,41.37,0,0,1,5.28,3.49,38.11,38.11,0,0,1,4.65,4.29l.54.58.51.6.51.6.25.3.24.31.48.63.24.31c.08.1.16.21.23.32l.9,1.3A39.25,39.25,0,0,1,88.4,39.06a37.36,37.36,0,0,1,1.16,6.17l0,.39,0,.19V46l.05.78c0,.52.08,1,.07,1.57s0,1,0,1.57l0,.78,0,.78a39,39,0,0,1-2.65,12.18.14.14,0,0,1-.27-.1,38.54,38.54,0,0,0,2.31-12.1l0-.77v-.77c0-.51,0-1-.05-1.54s-.06-1-.11-1.54l-.07-.77,0-.19,0-.19-.05-.38a36.55,36.55,0,0,0-1.27-6,38.23,38.23,0,0,0-5.3-11L81.35,27c-.07-.1-.15-.2-.23-.3l-.24-.3-.48-.6-.24-.3-.25-.29-.51-.57-.51-.57-.53-.55a36.75,36.75,0,0,0-4.58-4,39.88,39.88,0,0,0-5.15-3.27A38.38,38.38,0,0,0,63,13.88l-.72-.24-.36-.12-.37-.1L60.11,13l-1.48-.33-.37-.08-.37-.06-.75-.13-.75-.13-.75-.09-.75-.09-.38,0-.38,0-1.52-.1-1.52,0c-.51,0-1,0-1.52,0l-.76,0h-.19l-.19,0-.38,0-.76.06-.38,0-.38,0-1.5.2a40,40,0,0,0-5.88,1.4l-1.43.5-.35.13-.35.14-.7.28c-.47.18-.92.4-1.38.61l-.69.32-.67.35-.67.35-.33.18-.33.19-1.3.77-1.26.83c-.21.13-.41.29-.62.43l-.61.44a39.52,39.52,0,0,0-4.55,4,38.45,38.45,0,0,0-3.84,4.64l-.43.62-.21.31-.2.32-.79,1.28L17.7,31.7c-.13.22-.23.44-.35.67L17,33a38.57,38.57,0,0,0-2.18,5.58,40.1,40.1,0,0,0-1.27,5.85L13.39,46l-.11,1.49,0,.37c0,.12,0,.25,0,.37l0,.75,0,.75c0,.12,0,.25,0,.37v.37l0,.75v.75l.11,1.49c0,.25.05.5.08.74l.09.74c0,.25.05.5.1.74l.13.74c.09.49.16,1,.28,1.47l.16.73.08.37c0,.12.05.24.09.36l.4,1.44,0,.18.06.18.12.36.23.71a39.18,39.18,0,0,0,2.35,5.51,39.93,39.93,0,0,0,3.21,5.08l.45.6c.15.2.3.4.46.59l1,1.16,1,1.11.26.28.27.27.54.53c.18.18.35.36.54.53l.56.51.56.51.14.13.15.12.29.24.58.48c.19.16.39.33.59.47l1.21.91a40.83,40.83,0,0,0,5.2,3.12l.68.33c.23.11.45.23.69.33l1.4.6c.95.37,1.9.74,2.88,1l.73.24.74.2.74.2.37.1.37.08,1.5.33,1.52.26.38.06.38,0,.77.09.77.09.77.06.77.06c.26,0,.51,0,.77,0l1.55,0h0a.14.14,0,0,1,0,.29Z"/><path class="cls-2" d="M33.66,67.66s0,.11-.07.2l.3.07c1.46.35,2.94.63,4.37,1.08,2.4.76,4.75,1.64,7.13,2.45.49.17,1,.25,1.56.38,0-.1,0-.13,0-.14l-.44-.34a11.11,11.11,0,0,1-3.07-3.2A5.27,5.27,0,0,1,42.61,65a3.46,3.46,0,0,1,4.26-3.33c1.28.28,2.49.87,3.74,1.26a11.86,11.86,0,0,0,3,.71,17.22,17.22,0,0,0,8.14-1.81,7,7,0,0,1,2-.65c1.88-.26,3.78-.37,5.66-.64a28.37,28.37,0,0,0,3-.75v-.27C58.71,52.21,43.7,46.36,33.66,67.66Zm6.64-1.42c-.06.26-.47.43-.91.36s-.75-.34-.69-.6.47-.43.91-.36S40.37,66,40.31,66.23Zm0-3.25c-.36.09-.66-.19-.68-.62a1,1,0,0,1,.63-1c.36-.09.66.19.68.62A1,1,0,0,1,40.27,63Zm7.52-4.18c-.07.2-.46.24-.88.1s-.71-.42-.64-.61.46-.24.88-.1S47.86,58.61,47.79,58.8Zm.06-2.58a.63.63,0,1,1,.63-.63A.63.63,0,0,1,47.86,56.22Zm4.66,1c-.42,0-.76-.23-.76-.5s.34-.5.76-.5.76.23.76.5S52.94,57.23,52.52,57.23Zm7-1c-.14.24-.55.26-.91.05s-.54-.58-.4-.82.55-.26.91-.05S59.65,55.94,59.51,56.18Zm3.34,3.27a.63.63,0,1,1-.22-.86A.63.63,0,0,1,62.85,59.45ZM65,57.6c-.16.14-.52,0-.81-.36s-.4-.72-.24-.85.52,0,.81.36S65.2,57.47,65,57.6Z"/><path class="cls-2" d="M52,52.85c-.12-4.13,1.06-8.24,4.78-10.57,6.53-4.1,11.9-9,10.39-19.56a12.81,12.81,0,0,1-2.53,4c-1.74,1.72-4.09,3-7.31,4.47a6.75,6.75,0,0,0-1.92,1.34c-3.23,3.19-3.43,8.33-3.61,11.34,3-10.83,10.56-9.13,14.08-15.18C62,36.36,54,32.73,51.65,48a21.8,21.8,0,0,0-.17,4.86Z"/><path class="cls-2" d="M51.73,52.85c-.18-4.22,1-8.45,4.77-10.83,6.53-4.1,11.38-8.47,10.82-19.84a15,15,0,0,1-3,4.29c-1.74,1.72-4.09,3-7.31,4.47a6.75,6.75,0,0,0-1.92,1.34c-3.23,3.19-3.33,9.24-3.51,12.25,2.78-11.94,10.46-10,14-16.08-3.81,7.67-11.83,4-14.2,19.31a21.92,21.92,0,0,0-.15,5.12Z"/><path class="cls-2" d="M46.35,48.75a6.79,6.79,0,0,1,4.51,4.16l.42,0a13.25,13.25,0,0,0-.66-1.59c-4.46-8.94-8.68-5.13-12.53-9.11,3.36,3,7.38.18,11.66,6.73-.7-1.82-1.85-5.1-4.46-6.43A4.36,4.36,0,0,0,43.84,42a16.18,16.18,0,0,1-5.38-1.32,9.82,9.82,0,0,1-2.57-2.14C37.15,45.64,41.53,47.51,46.35,48.75Z"/><path class="cls-2" d="M46.35,48.5A6.88,6.88,0,0,1,51,52.9l.39,0A13.44,13.44,0,0,0,50.62,51c-4.46-8.94-8.68-5.13-12.53-9.11,3.36,3,7.71.35,11.77,7.16-.7-1.82-2-5.53-4.57-6.85a4.36,4.36,0,0,0-1.44-.45,16.18,16.18,0,0,1-5.38-1.32,9.67,9.67,0,0,1-2.66-2.06C37.68,45.52,41.53,47.26,46.35,48.5Z"/></svg>