<svg id="Layer_1" data-name="Layer 1" xmlns="http://www.w3.org/2000/svg" viewBox="0 0 100 100"><defs><style>.cls-1{fill:none;stroke:#231f20;stroke-linecap:round;stroke-linejoin:round;stroke-width:3px;}.cls-2{fill:#231f20;}</style></defs><title>key</title><path class="cls-1" d="M76.13,24.87c1.56-2.13.41-5.5-1.55-6.75a5.23,5.23,0,0,0-6.87,1.35C62.4,26.7,50.49,43.1,47.07,47.81a18,18,0,1,0,8.17,5.92l3.38-4.88,5-.68L62.78,43l5.19-.8L67.19,37l5.14-.78L71.66,31l5.09-.86Z"/><path class="cls-2" d="M29.74,67.53a5.72,5.72,0,0,0,7,7,5.62,5.62,0,0,0,3.94-3.95,5.72,5.72,0,0,0-7-7A5.62,5.62,0,0,0,29.74,67.53Z"/></svg>