<svg id="Layer_1" data-name="Layer 1" xmlns="http://www.w3.org/2000/svg" viewBox="0 0 100 100"><defs><style>.cls-1{fill:#646464;}.cls-2{fill:#05894e;}.cls-3{fill:#010101;opacity:0.25;}.cls-4{fill:#856241;}.cls-5{fill:#4ab754;}</style></defs><title>logo_color</title><path class="cls-1" d="M66.25,79.66,61.9,69.8,58,79.37a.21.21,0,0,0,.11.27l.08,0a.21.21,0,0,0,.19-.13l1.18-2.88a2.35,2.35,0,0,1,2.13-1,2.58,2.58,0,0,1,1.31.74l1.49,3.21Zm-6.33-4,1.31-3.27L62.7,75.7a2.57,2.57,0,0,0-1-.41A3.12,3.12,0,0,0,59.92,75.69Z"/><path class="cls-2" d="M18.3,79.66,14,69.8,10,79.37a.21.21,0,0,0,.11.27l.08,0a.21.21,0,0,0,.19-.13l1.18-2.88a2.35,2.35,0,0,1,2.13-1,2.58,2.58,0,0,1,1.31.74l1.49,3.21Zm-6.33-4,1.31-3.27,1.47,3.28a2.57,2.57,0,0,0-1-.41A3.12,3.12,0,0,0,12,75.69Z"/><path class="cls-1" d="M90,79.66,85.65,69.8l-3.94,9.57a.21.21,0,0,0,.11.27l.08,0a.21.21,0,0,0,.19-.13l1.18-2.88a2.35,2.35,0,0,1,2.13-1,2.58,2.58,0,0,1,1.31.74l1.49,3.21Zm-6.33-4L85,72.42l1.47,3.28a2.57,2.57,0,0,0-1-.41A3.12,3.12,0,0,0,83.67,75.69Z"/><path class="cls-2" d="M47,72.83a5,5,0,0,0-1-1.57,4.76,4.76,0,0,0-1.51-1.07,4.81,4.81,0,0,0-3.81,0,4.69,4.69,0,0,0-1.51,1.07,5.06,5.06,0,0,0-1.35,3.47,4.82,4.82,0,0,0,.37,1.87,5.19,5.19,0,0,0,1,1.57,4.93,4.93,0,0,0,1.51,1.08,4.48,4.48,0,0,0,3.73,0,5,5,0,0,0,1.51-1.08,5.14,5.14,0,0,0,1-1.57h0a4.82,4.82,0,0,0,.37-1.87A5,5,0,0,0,47,72.83Zm-.41,3.6a4.7,4.7,0,0,1-.94,1.44,4.61,4.61,0,0,1-1.38,1,4,4,0,0,1-3.36,0A4.51,4.51,0,0,1,39.66,78V71.36a4.29,4.29,0,0,1,1.16-.77,4.37,4.37,0,0,1,3.46,0,4.32,4.32,0,0,1,1.37,1,4.6,4.6,0,0,1,1.24,3.17A4.39,4.39,0,0,1,46.55,76.43Z"/><path class="cls-1" d="M57,76.1a2.87,2.87,0,0,0-.36-.7,3.33,3.33,0,0,0-.53-.58,5,5,0,0,0-.63-.47L54,73.44a3.31,3.31,0,0,1-.45-.32,2.53,2.53,0,0,1-.36-.37,1.46,1.46,0,0,1-.23-.43,1.74,1.74,0,0,1,.33-1.65,1.45,1.45,0,0,1,1.11-.43,1.7,1.7,0,0,1,.53.08,1.51,1.51,0,0,1,.45.24,1.08,1.08,0,0,1,.31.36.21.21,0,0,0,.37-.2,1.51,1.51,0,0,0-.42-.5,2.9,2.9,0,0,0-1.52-.42A3.9,3.9,0,0,0,52.9,70a3,3,0,0,0-1,.49,2.48,2.48,0,0,0-.67.8,2.44,2.44,0,0,0,0,2.1,3.61,3.61,0,0,0,.57.83,5,5,0,0,0,.77.69l.85.59.59.39.59.39a1.88,1.88,0,0,1,.63.66,1.44,1.44,0,0,1-.56,2.17,3.11,3.11,0,0,1-1.9,0,2.85,2.85,0,0,1-.82-.31,1.79,1.79,0,0,1-.59-.54,1.31,1.31,0,0,1-.22-.78.21.21,0,0,0-.42,0,1.74,1.74,0,0,0,.3,1,2.21,2.21,0,0,0,.73.66,3.27,3.27,0,0,0,.94.35,4.72,4.72,0,0,0,1,.1,4.52,4.52,0,0,0,1.19-.17A3.75,3.75,0,0,0,56,79a2.88,2.88,0,0,0,.83-.85,2.25,2.25,0,0,0,.33-1.22A2.42,2.42,0,0,0,57,76.1Z"/><polygon class="cls-1" points="72.62 70.17 72.62 69.79 67.99 69.79 67.99 79.66 69.74 79.66 69.74 75.03 71.88 75.03 71.88 74.63 69.74 74.63 69.74 70.17 72.62 70.17"/><path class="cls-1" d="M80.37,79.22a2.17,2.17,0,0,1-.68-.1,2,2,0,0,1-.62-.35,3.71,3.71,0,0,1-.53-.52,8,8,0,0,1-.52-.69l-.4-.55a6.13,6.13,0,0,0-.42-.52,3.4,3.4,0,0,0-.5-.45l-.23-.15h.89a3.11,3.11,0,0,0,1.21-.23,2.9,2.9,0,0,0,1-.64,2.94,2.94,0,0,0,.63-1,3.33,3.33,0,0,0,0-2.42,3,3,0,0,0-.63-1,2.91,2.91,0,0,0-1-.64,3.11,3.11,0,0,0-1.21-.23H74.24v9.88H76v-3.5a2.23,2.23,0,0,1,.43.24,3,3,0,0,1,.44.4,5.71,5.71,0,0,1,.39.49l.39.54a8.35,8.35,0,0,0,.55.72,4.14,4.14,0,0,0,.59.58,2.45,2.45,0,0,0,.75.42,2.61,2.61,0,0,0,.82.13.22.22,0,1,0,0-.44ZM76,70.17h1.11a1.65,1.65,0,0,1,1.41.8,3.61,3.61,0,0,1,.27,1,6.44,6.44,0,0,1,.07.91,6.32,6.32,0,0,1-.07.91,3.6,3.6,0,0,1-.27.95,1.65,1.65,0,0,1-1.41.8H76Z"/><path class="cls-2" d="M36.34,79.22a2.17,2.17,0,0,1-.68-.1,2,2,0,0,1-.62-.35,3.71,3.71,0,0,1-.53-.52,8,8,0,0,1-.52-.69l-.4-.55a6.13,6.13,0,0,0-.42-.52,3.4,3.4,0,0,0-.5-.45l-.23-.15h.89a3.11,3.11,0,0,0,1.21-.23,2.9,2.9,0,0,0,1-.64,2.94,2.94,0,0,0,.63-1,3.33,3.33,0,0,0,0-2.42,3,3,0,0,0-.63-1,2.91,2.91,0,0,0-1-.64,3.11,3.11,0,0,0-1.21-.23H30.21v9.88H32v-3.5a2.23,2.23,0,0,1,.43.24,3,3,0,0,1,.44.4,5.71,5.71,0,0,1,.39.49l.39.54a8.35,8.35,0,0,0,.55.72,4.14,4.14,0,0,0,.59.58,2.45,2.45,0,0,0,.75.42,2.61,2.61,0,0,0,.82.13.22.22,0,1,0,0-.44ZM32,70.17h1.11a1.65,1.65,0,0,1,1.41.8,3.61,3.61,0,0,1,.27,1,6.44,6.44,0,0,1,.07.91,6.32,6.32,0,0,1-.07.91,3.6,3.6,0,0,1-.27.95,1.65,1.65,0,0,1-1.41.8H32Z"/><path class="cls-2" d="M24.93,74.35v.39h1.78v3.48l-.2.11a5.85,5.85,0,0,1-3.06.9,4.6,4.6,0,0,1-1.83-.37,5,5,0,0,1-1.24-.76V71.3a4.73,4.73,0,0,1,1.19-.71,5.12,5.12,0,0,1,3.76,0,4.71,4.71,0,0,1,1.49,1,.22.22,0,1,0,.3-.31,5.14,5.14,0,0,0-1.63-1.06,5.55,5.55,0,0,0-4.1,0,5,5,0,0,0-2.7,2.63,4.73,4.73,0,0,0-.39,1.9,4.51,4.51,0,0,0,.41,1.87,5.17,5.17,0,0,0,1.1,1.57,5.33,5.33,0,0,0,1.63,1.08,5,5,0,0,0,2,.4,6.23,6.23,0,0,0,3.27-1,4.41,4.41,0,0,1,1-.45,2.53,2.53,0,0,1,.37-.06l.24,0,.15,0V74.35Z"/><path class="cls-3" d="M37.26,53.51a1.63,1.63,0,0,1,1.19-.73,7.58,7.58,0,0,1,4.34.39,32.71,32.71,0,0,0,3.79,1.17,5.62,5.62,0,0,1,1.16.41,8.32,8.32,0,0,0,6.53.44c.82-.27,1.65-.55,2.46-.86.22-.09.37-.33.55-.51a3,3,0,0,0-.72-.12c-.73.06-1.46.17-2.19.24A8.63,8.63,0,0,1,49.27,53a4.48,4.48,0,0,1-2-2.13,2.18,2.18,0,0,1-.17-.71A.73.73,0,0,1,48,49.3a2.45,2.45,0,0,1,1,.31,6.56,6.56,0,0,0,3.9.79A9.9,9.9,0,0,0,56,49.77a14.6,14.6,0,0,1,4-.8,11.12,11.12,0,0,0,2.71-.56,6.05,6.05,0,0,1,3.45-.31,3.49,3.49,0,0,1,2,1.3A6.72,6.72,0,0,0,71,51.57a.5.5,0,0,1,.39.5c0,.86-3.71,7.08-8,8.37a11.22,11.22,0,0,0-3.17,1.69,12.33,12.33,0,0,1-1.79,1.09,4,4,0,0,1-3.3-.11c-1.2-.47-2.41-.93-3.63-1.34-.72-.24-1.46-.4-2.19-.59a9.42,9.42,0,0,1-3.6-2c-1.18-1-2.39-1.87-3.59-2.8a10.26,10.26,0,0,0-3.5-1.77,2.27,2.27,0,0,1-1.39-.86Z"/><path class="cls-1" d="M51.28,62.89a20.94,20.94,0,0,1-3.38,0l-.85-.08-.84-.12-.21,0-.21,0-.42-.08L45,62.49l-.41-.1c-.56-.13-1.1-.3-1.64-.47l-.81-.29-.4-.16-.4-.17a20.67,20.67,0,0,1-5.77-3.71l-.32-.29L35,57.15,34.89,57l-.61-.62-.58-.64c-.1-.11-.19-.22-.28-.33l-.27-.34a20.87,20.87,0,0,1-3.38-6l-.14-.41-.07-.21,0-.1,0-.1-.25-.84c0-.07,0-.14-.05-.21l-.05-.21-.1-.42c-.07-.28-.12-.57-.17-.85a20.27,20.27,0,0,1-.34-3.47V42c0-.07,0-.15,0-.22V40.9c0-.07,0-.15,0-.22l0-.22c0-.29,0-.58.07-.87l.11-.86a22.62,22.62,0,0,1,.79-3.39,21.9,21.9,0,0,1,8.09-11L38,24.1l.36-.24.73-.46.75-.43.19-.11.19-.1.39-.19.39-.19.39-.18c.26-.11.52-.24.79-.34l.4-.16.2-.08.2-.07.82-.27a22.7,22.7,0,0,1,3.36-.75l.86-.1.21,0h.21l.43,0h.86c.29,0,.57,0,.86,0l.86,0,.86.07.21,0,.21,0,.43.06.43.06.42.08.42.08.21,0,.21.05.83.2.82.24.21.06.2.07.41.14A21.59,21.59,0,0,1,60.45,23a22.34,22.34,0,0,1,2.85,1.89,20.58,20.58,0,0,1,2.51,2.31l.29.31.28.33.28.33.14.16.13.17.26.34.13.17.13.17.49.7A21.19,21.19,0,0,1,70.73,36a20.17,20.17,0,0,1,.63,3.33l0,.21v.21l0,.42c0,.28,0,.56,0,.85s0,.56,0,.85v.42l0,.42A21.05,21.05,0,0,1,70,49.32a.08.08,0,0,1-.14-.05,20.81,20.81,0,0,0,1.25-6.53V41.9c0-.28,0-.56,0-.83s0-.55-.06-.83l0-.41v-.21l0-.21a19.73,19.73,0,0,0-.69-3.25,20.64,20.64,0,0,0-2.86-5.95l-.49-.67-.13-.16-.13-.16-.26-.32-.13-.16-.14-.16-.27-.31L65.6,28l-.29-.3a19.84,19.84,0,0,0-2.47-2.18,21.53,21.53,0,0,0-2.78-1.76,20.72,20.72,0,0,0-3-1.29l-.39-.13-.2-.06-.2-.06L55.46,22l-.8-.18-.2,0-.2,0-.4-.07-.4-.07-.41,0-.41,0-.2,0h-.2l-.82-.05h-.82c-.27,0-.55,0-.82,0h-.61l-.2,0-.41,0-.2,0-.2,0-.81.11a21.59,21.59,0,0,0-3.18.76l-.77.27-.19.07-.19.08-.38.15c-.25.1-.5.22-.75.33l-.37.17-.36.19-.36.19-.18.09-.18.1-.7.41-.68.45-.33.23-.33.24a21.34,21.34,0,0,0-2.46,2.13A20.76,20.76,0,0,0,33.84,30l-.23.33-.12.17-.11.17-.43.69-.4.71c-.07.12-.13.24-.19.36l-.18.36a20.83,20.83,0,0,0-1.18,3A21.65,21.65,0,0,0,30.33,39l-.1.8-.06.81v.2c0,.07,0,.13,0,.2v.81c0,.07,0,.13,0,.2v1l.06.81c0,.13,0,.27,0,.4l0,.4c0,.13,0,.27.05.4l.07.4c0,.27.09.53.15.79l.09.39,0,.2c0,.07,0,.13,0,.2l.21.78,0,.1,0,.1.06.19.13.38a21.16,21.16,0,0,0,1.27,3,21.56,21.56,0,0,0,1.73,2.74l.25.32c.08.11.16.22.25.32l.52.62.55.6.14.15.14.14.29.29.29.29.3.27.3.27.08.07.08.06.16.13.32.26.32.25.65.49a22,22,0,0,0,2.81,1.69l.37.18.37.18.76.33c.51.2,1,.4,1.55.56l.39.13.4.11.4.11.2.05.2,0,.81.18.82.14.21,0,.21,0,.41,0,.41,0,.42,0,.42,0,.42,0,.84,0h0a.08.08,0,0,1,0,.15Z"/><path class="cls-4" d="M41.18,51.47s0,.06,0,.11l.16,0c.79.19,1.59.34,2.36.58,1.29.41,2.57.88,3.85,1.32.27.09.55.13.84.2,0-.06,0-.07,0-.08l-.24-.18a6,6,0,0,1-1.66-1.73A2.85,2.85,0,0,1,46,50a1.87,1.87,0,0,1,2.3-1.8c.69.15,1.34.47,2,.68a6.4,6.4,0,0,0,1.61.38,9.3,9.3,0,0,0,4.39-1A3.77,3.77,0,0,1,57.44,48c1-.14,2-.2,3.05-.35a15.32,15.32,0,0,0,1.61-.4v-.15C54.7,43.13,46.6,40,41.18,51.47Zm3.59-.77c0,.14-.25.23-.49.19s-.41-.18-.37-.32.25-.23.49-.19S44.8,50.56,44.77,50.71Zm0-1.75c-.19,0-.36-.1-.37-.34a.52.52,0,0,1,.34-.51c.19,0,.36.1.37.34A.52.52,0,0,1,44.75,49Zm4.06-2.26c0,.11-.25.13-.48.06s-.38-.22-.35-.33.25-.13.48-.06S48.84,46.59,48.81,46.69Zm0-1.4a.34.34,0,1,1,.34-.34A.34.34,0,0,1,48.84,45.3Zm2.52.54c-.23,0-.41-.12-.41-.27s.18-.27.41-.27.41.12.41.27S51.59,45.84,51.36,45.84Zm3.78-.56c-.08.13-.3.14-.49,0s-.29-.31-.21-.44.3-.14.49,0S55.21,45.15,55.14,45.28ZM56.94,47a.34.34,0,1,1-.12-.47A.34.34,0,0,1,56.94,47Zm1.18-1c-.08.07-.28,0-.44-.19s-.22-.39-.13-.46.28,0,.44.19S58.21,46,58.12,46Z"/><path class="cls-1" d="M51.06,43.48c-.07-2.23.57-4.45,2.58-5.71,3.53-2.22,6.43-4.85,5.61-10.56a6.92,6.92,0,0,1-1.36,2.17,13.52,13.52,0,0,1-3.95,2.41,3.64,3.64,0,0,0-1,.72C51.16,34.22,51,37,51,38.63c1.63-5.85,5.7-4.93,7.6-8.2-2.06,4.14-6.39,2.18-7.67,10.43a11.77,11.77,0,0,0-.09,2.62Z"/><path class="cls-5" d="M50.93,43.48c-.1-2.28.52-4.56,2.57-5.85,3.53-2.22,6.15-4.58,5.84-10.71a8.08,8.08,0,0,1-1.59,2.32,13.52,13.52,0,0,1-3.95,2.41,3.64,3.64,0,0,0-1,.72c-1.74,1.72-1.8,5-1.9,6.62,1.5-6.45,5.65-5.42,7.55-8.69-2.06,4.14-6.39,2.18-7.67,10.43a11.84,11.84,0,0,0-.08,2.77Z"/><path class="cls-1" d="M48,41.27a3.66,3.66,0,0,1,2.43,2.24l.23,0a7.15,7.15,0,0,0-.36-.86c-2.41-4.83-4.69-2.77-6.77-4.92,1.81,1.64,4,.1,6.3,3.63-.38-1-1-2.75-2.41-3.47a2.35,2.35,0,0,0-.78-.24,8.74,8.74,0,0,1-2.91-.71,5.3,5.3,0,0,1-1.39-1.16C43.06,39.58,45.42,40.59,48,41.27Z"/><path class="cls-2" d="M48,41.13a3.71,3.71,0,0,1,2.49,2.37h.21a7.26,7.26,0,0,0-.4-1c-2.41-4.83-4.69-2.77-6.77-4.92,1.81,1.64,4.16.19,6.35,3.87-.38-1-1.06-3-2.47-3.7a2.35,2.35,0,0,0-.78-.24,8.74,8.74,0,0,1-2.91-.71,5.22,5.22,0,0,1-1.44-1.11C43.35,39.52,45.42,40.46,48,41.13Z"/></svg>