<svg id="Layer_1" data-name="Layer 1" xmlns="http://www.w3.org/2000/svg" viewBox="0 0 100 100"><defs><style>.cls-1,.cls-2,.cls-3{fill:none;stroke:#231f20;stroke-miterlimit:10;}.cls-1{stroke-width:3px;}.cls-2,.cls-3{stroke-width:2px;}.cls-3{fill-rule:evenodd;}.cls-4{fill:#231f20;}</style></defs><title>mobile</title><rect class="cls-1" x="32.54" y="17.39" width="34.92" height="65.23" rx="5" ry="5"/><path class="cls-2" d="M37.54,17.39H62.46a5,5,0,0,1,5,5v0a0,0,0,0,1,0,0H32.54a0,0,0,0,1,0,0v0A5,5,0,0,1,37.54,17.39Z"/><path class="cls-3" d="M32.54,71.84v5.77a5,5,0,0,0,5,5H62.46a5,5,0,0,0,5-5V71.84Z"/><circle class="cls-4" cx="50" cy="77.23" r="3.16"/></svg>