<svg id="Layer_1" data-name="Layer 1" xmlns="http://www.w3.org/2000/svg" viewBox="0 0 100 100"><defs><style>.cls-1{fill:none;stroke:#231f20;stroke-linecap:round;stroke-linejoin:round;stroke-width:7px;}.cls-2{fill:#231f20;}</style></defs><title>service</title><line class="cls-1" x1="44.83" y1="55.17" x2="25.05" y2="74.95"/><line class="cls-1" x1="74.95" y1="25.05" x2="55.17" y2="44.83"/><path class="cls-2" d="M57.86,33.39h2a5,5,0,0,1,5,5V84.33a5,5,0,0,1-5,5h-2a0,0,0,0,1,0,0V33.39A0,0,0,0,1,57.86,33.39Z" transform="translate(61.36 -25.42) rotate(45)"/><path class="cls-2" d="M35.14,10.67h2a5,5,0,0,1,5,5V61.61a5,5,0,0,1-5,5h-2a0,0,0,0,1,0,0V10.67a0,0,0,0,1,0,0Z" transform="translate(38.64 93.29) rotate(-135)"/></svg>