<svg id="Layer_1" data-name="Layer 1" xmlns="http://www.w3.org/2000/svg" viewBox="0 0 100 100"><defs><style>.cls-1{fill:#231f20;}.cls-2,.cls-3{fill:none;stroke:#231f20;stroke-linecap:round;}.cls-2{stroke-miterlimit:10;stroke-width:3px;}.cls-3{stroke-linejoin:round;stroke-width:1.91px;}</style></defs><title>delete</title><path class="cls-1" d="M70.27,24.58H57.93V23a5.62,5.62,0,0,0-5.6-5.6H47.68a5.62,5.62,0,0,0-5.6,5.6v1.59H29.73a5.09,5.09,0,0,0-5.09,5.09V33.1H75.36V29.67A5.09,5.09,0,0,0,70.27,24.58Zm-24.68,0V22.94a2,2,0,0,1,2-2h4.75a2,2,0,0,1,2,2v1.64Z"/><path class="cls-2" d="M27,36.8l4.31,42.64A3.61,3.61,0,0,0,35,82.61H65a3.61,3.61,0,0,0,3.75-3.16L73,36.8Z"/><line class="cls-3" x1="50" y1="42.32" x2="50" y2="77.05"/><line class="cls-3" x1="36.08" y1="42.41" x2="40.08" y2="76.95"/><line class="cls-3" x1="63.92" y1="42.41" x2="59.92" y2="76.95"/></svg>