<svg id="Layer_1" data-name="Layer 1" xmlns="http://www.w3.org/2000/svg" viewBox="0 0 100 100"><defs><style>.cls-1{fill:#329f6f;fill-rule:evenodd;}</style></defs><title>icon_whatsapp</title><path class="cls-1" d="M64.63,57.12c-.79-.41-4.65-2.38-5.37-2.65s-1.25-.42-1.8.35-2.12,2.48-2.59,3-1,.41-1.71.29c-.88-.15-3.35-1.43-6.32-4.14s-4.35-5.1-4.55-6c-.15-.64-.28-1.19.21-1.68s2.17-2.11,2.92-2.68.59-1.08.26-1.77-2.53-4.36-3-5.1-.69-1.25-1-1.42a6.79,6.79,0,0,0-3.74.73c-1.8.78-3.17,3.86-3.33,5.28s-.46,3.11,2.65,9.38c2.21,4.45,8.32,10,13.37,12.41,6.33,3,8.42,2.32,9.73,2.11s4.52-1.72,5.23-3.52a6.34,6.34,0,0,0,.56-3.68C65.94,57.73,65.42,57.52,64.63,57.12Z"/><path class="cls-1" d="M50.09,17.63A32,32,0,0,0,22.66,66.19L17.88,82.37,34.61,77.7A32,32,0,1,0,50.09,17.63Zm0,58.68a26.51,26.51,0,0,1-14.67-4.41l-9.24,2.28,2.33-8.9a26.65,26.65,0,1,1,21.58,11Z"/></svg>