<svg id="Layer_1" data-name="Layer 1" xmlns="http://www.w3.org/2000/svg" viewBox="0 0 100 100"><defs><style>.cls-1{fill:#fff;}</style></defs><title>icon_agroquimico</title><path class="cls-1" d="M15.69,90a5.89,5.89,0,0,1-5.16-3.75,6.07,6.07,0,0,1,1.19-6.72A5.91,5.91,0,0,1,18.36,78a1.09,1.09,0,0,0,1.38-.28q3.15-3.23,6.38-6.37A1.17,1.17,0,0,0,26.44,70C24.71,63.6,23,57.2,21.28,50.82a1.24,1.24,0,0,1,.39-1.4c4.7-4.67,9.38-9.37,14.09-14a1.26,1.26,0,0,0,.41-1.32Q35,28.61,33.88,23.14a.93.93,0,0,0-.84-.86,6.15,6.15,0,0,1-4.91-7,6.24,6.24,0,0,1,6.81-5.26,6.17,6.17,0,0,1,5.56,6.13,5.93,5.93,0,0,1-2.73,5.17.69.69,0,0,0-.36.84c.79,3.75,1.56,7.5,2.37,11.24a1.06,1.06,0,0,0,.67.63q8.72,2.37,17.45,4.67a1.11,1.11,0,0,0,.9-.17c2.3-2.25,4.56-4.55,6.86-6.81.34-.33.22-.58.09-.91a6.2,6.2,0,1,1,11.67-4.14,6.18,6.18,0,0,1-8.1,7.59,1.07,1.07,0,0,0-1.36.32Q64.79,37.83,61.58,41a1,1,0,0,0-.34,1.18q2.35,8.64,4.64,17.3a.94.94,0,0,0,.82.8q5.51,1.13,11,2.3a.79.79,0,0,0,1-.4A6.12,6.12,0,0,1,86.22,60a6.22,6.22,0,0,1-2.4,11.93A6.07,6.07,0,0,1,77.72,67a.92.92,0,0,0-.83-.86Q71.34,65,65.8,63.81a1.05,1.05,0,0,0-1.11.36q-7.07,7.1-14.16,14.19a1.18,1.18,0,0,1-1.33.36C42.79,77,36.37,75.27,30,73.54a1.12,1.12,0,0,0-1.26.33q-3.18,3.25-6.43,6.44A1,1,0,0,0,22,81.54C23.6,85.64,20.62,90,15.69,90ZM62.5,61.07c0-.24-.06-.38-.1-.51Q60,51.76,57.66,43a1.1,1.1,0,0,0-.66-.64q-8.79-2.39-17.61-4.72a1.1,1.1,0,0,0-.9.23Q32,44.27,25.57,50.76a1.09,1.09,0,0,0-.22.89q2.32,8.81,4.7,17.61a1.11,1.11,0,0,0,.64.68q8.83,2.4,17.69,4.73a1,1,0,0,0,.82-.2q6.51-6.46,13-13A3.1,3.1,0,0,0,62.5,61.07Z"/></svg>