<svg id="Layer_1" data-name="Layer 1" xmlns="http://www.w3.org/2000/svg" viewBox="0 0 100 100"><defs><style>.cls-1{fill:#fff;}</style></defs><title>icon_semente</title><path class="cls-1" d="M10,55.31h9.35v2.77l.84-.48a24.16,24.16,0,0,1,8.87-3.44,8.33,8.33,0,0,1,6.44,1.45A12.28,12.28,0,0,0,42.95,58c1.93,0,3.86-.08,5.78,0a11.32,11.32,0,0,1,9.11,5.09,4.53,4.53,0,0,1,.69,4.26c.73,0,1.39,0,2,0,1.19-.08,2.39-.18,3.57-.33a10,10,0,0,0,4.06-1.49q5-3.11,10-6.1a16.44,16.44,0,0,1,6.32-2.52,4.9,4.9,0,0,1,5.37,3.94,1.24,1.24,0,0,0,.13.27v.78A5.36,5.36,0,0,1,88.12,65Q77.93,72.86,67.81,80.82a9.08,9.08,0,0,1-4.4,1.84c-5.17.74-10.33,1.55-15.5,2.27a76.08,76.08,0,0,1-8.43,1c-6.24.17-12.49.1-18.74.13H19.38v4H10Zm9.37,28c2.9,0,5.69-.08,8.47,0a118.87,118.87,0,0,0,25.93-2c3-.56,6.12-.88,9.18-1.31A6.18,6.18,0,0,0,66,78.8q6.5-5.12,13-10.2l7.64-5.95c.48-.37.93-.82.57-1.44-.86-1.49-1.43-2.1-3.12-1.52a27.84,27.84,0,0,0-4.81,2.18c-3.51,2-6.92,4.23-10.41,6.3a9.1,9.1,0,0,1-2.87,1.15,32.64,32.64,0,0,1-5.49.65C55.26,70,50,70,44.64,70c-2.68,0-5.37,0-8,.13-1.9.11-2.34.69-2.58,2.56A1.4,1.4,0,0,1,32.57,74a1.42,1.42,0,0,1-1.26-1.6,4.56,4.56,0,0,1,2.83-4.23,10.12,10.12,0,0,1,3.6-.82c4.71-.09,9.43,0,14.14-.06a16,16,0,0,0,3.52-.54c.94-.23,1.06-.66.6-1.51a7.92,7.92,0,0,0-6.37-4.47c-2.3-.22-4.62-.14-6.94-.18A14.41,14.41,0,0,1,34.27,58a6.9,6.9,0,0,0-6-1.05,26.73,26.73,0,0,0-8.33,4,1.18,1.18,0,0,0-.58,1.14q0,10.23,0,20.47C19.37,82.75,19.37,83,19.37,83.3Zm-2.78,4V58H12.7V87.29Z"/><path class="cls-1" d="M64.84,10a4.72,4.72,0,0,1,1.53,2.63A16.28,16.28,0,0,1,59.1,32.07c-1.22.67-1.83.49-2.42-.76a16.23,16.23,0,0,1,6.7-21c.18-.1.35-.22.53-.32Z"/><path class="cls-1" d="M54.61,51.09a16.29,16.29,0,0,1-15-9.84c-.55-1.34-.27-2,1.1-2.42a16.27,16.27,0,0,1,20,9.21c.47,1.18.21,1.88-1,2.2-1.65.43-3.33.72-5,1.07Z"/><path class="cls-1" d="M50,18.64C49.88,25.43,44.43,32,37.6,33.57a22.05,22.05,0,0,1-3.31.44c-1.1.08-1.62-.49-1.62-1.59,0-7,5.49-13.82,12.55-15.36A20,20,0,0,1,48,16.69C49.62,16.57,50,17,50,18.64Z"/></svg>