<svg id="Layer_1" data-name="Layer 1" xmlns="http://www.w3.org/2000/svg" viewBox="0 0 100 100"><defs><style>.cls-1{fill:#fff;}</style></defs><title>icon_fertilizante</title><path class="cls-1" d="M48.53,90s-.07-.1-.11-.1c-4.28-.7-5.94-4.7-6-7.88-.05-6.82,0-13.64,0-20.47,0-1.46,0-2.92,0-4.37.08-6.33,3.1-10.85,8.6-13.79a1.18,1.18,0,0,0,.78-1.3c-.12-1.48-.06-2.92,1.11-4.07a.78.78,0,0,0,.13-.5c0-1,0-2,0-3.15h-.75c-4.24,0-8.49,0-12.73,0a6.32,6.32,0,0,0-2.9.68,6.16,6.16,0,0,0-2.82,2.39,10.08,10.08,0,0,1-4.57,3.9.81.81,0,0,0-.54.88A7.7,7.7,0,0,1,21.92,50a7.83,7.83,0,0,1-8.63-6.42,7.59,7.59,0,0,1,1.65-6.19A11.6,11.6,0,0,1,13,32.27,3.76,3.76,0,0,0,12,30a8.69,8.69,0,0,1,4.91-13.92,28.6,28.6,0,0,1,3.77-.23,28.51,28.51,0,0,1,3.1-3.06,8.82,8.82,0,0,1,11.87,1.28A9.12,9.12,0,0,1,35.91,26a1.85,1.85,0,0,0,.67,2.89,6.35,6.35,0,0,0,2.16.47c4.82,0,9.63,0,14.45,0h.49c.63-.84,1-1.77,1.73-2.19a7.55,7.55,0,0,1,2.66-.43c0-.87,0-1.82,0-2.78a1,1,0,0,0-.31-.5,3.09,3.09,0,0,1-.92-2.4,4.56,4.56,0,0,0-1-3.25,4.94,4.94,0,0,1,2.38-7.51L59,10h1.88l.79.3a4.92,4.92,0,0,1,2.41,7.45,4.91,4.91,0,0,0-1,3.4,3,3,0,0,1-.94,2.39c-.12.12-.28.29-.28.43,0,1,0,1.9,0,2.9a7.85,7.85,0,0,0,.88,0,2.5,2.5,0,0,1,2.9,1.57c.08.17.46.29.7.29,2.55,0,5.1,0,7.66,0a3.61,3.61,0,0,1,2.61.85A25.12,25.12,0,0,1,79.75,33a64.43,64.43,0,0,1,7,13.36c1.11,2.65,2.11,5.36,3.16,8v1.25a2.62,2.62,0,0,1-2.75,1.86c-1.36-.13-1.92-1.1-2.36-2.27-1.59-4.2-3.13-8.42-4.9-12.55-1.1-2.57-2.53-5-3.87-7.45a2.62,2.62,0,0,0-2.92-1.46,3.29,3.29,0,0,0-.88.25c-1.54.75-3.07,1.53-4.6,2.29-1,.51-1.17,1.14-.46,2a3.62,3.62,0,0,1,.87,2.52c0,.47,0,.94,0,1.4a.94.94,0,0,0,.64,1.06A14.69,14.69,0,0,1,77.1,54.1a37.27,37.27,0,0,1,.32,6.53c0,7.11,0,14.21,0,21.32,0,4.11-2.12,6.89-6,8,0,0-.07.07-.11.11H67.59c-1.91-.53-3.81-1.14-5.74-1.57a7.31,7.31,0,0,0-3-.15c-2.22.46-4.39,1.13-6.58,1.72Zm-3.6-20.95h0c0,4,0,7.92,0,11.87a14,14,0,0,0,.15,2.17,4.79,4.79,0,0,0,5.23,4.39,14.19,14.19,0,0,0,5.33-1,10.59,10.59,0,0,1,8.49,0,14.23,14.23,0,0,0,5.88,1,4.38,4.38,0,0,0,4.35-3.07,8.1,8.1,0,0,0,.53-2.66c0-8.36.07-16.72,0-25.08a11.92,11.92,0,0,0-10-12,56.27,56.27,0,0,0-8.64-.24,7.77,7.77,0,0,0-1.92.31A12.26,12.26,0,0,0,44.94,57C44.92,61,44.93,65,44.93,69.05ZM27.26,22.24c0,.22.08.41.1.61a20.55,20.55,0,0,1,.18,2.32,1.26,1.26,0,0,1-1.29,1.21A1.28,1.28,0,0,1,25,25.1c0-.16,0-.31,0-.47a6.22,6.22,0,0,0-6.52-6.3,6.3,6.3,0,0,0-6,6.15,6.13,6.13,0,0,0,6,6.33c1,.06,1.6.61,1.54,1.38s-.75,1.28-1.72,1.15-1.71-.3-2.76-.49l1.17,2.79c.62-.28,1.08-.53,1.56-.7a1.25,1.25,0,0,1,1,2.26c-.28.18-.61.28-.91.44a5,5,0,0,0-2.71,5,4.83,4.83,0,0,0,3,4.42,5,5,0,0,0,5.57-.55,5.18,5.18,0,0,0,1.27-7,1.27,1.27,0,1,1,2.16-1.3c.17.28.33.57.49.85a8.74,8.74,0,0,0,5.36-9C33.19,26.26,30.49,22.88,27.26,22.24Zm-4-5.34c.79.75,1.49,1.44,2.22,2.1a1.54,1.54,0,0,0,.74.36A11.57,11.57,0,0,1,32.9,23c.39.41.74.85,1.16,1.33a6.14,6.14,0,0,0,1-6.4,6.14,6.14,0,0,0-5.8-4.23A6.17,6.17,0,0,0,23.28,16.9Zm41,19.94c0-1,0-1.91-.15-2.81-.18-1.36-.44-2.71-.68-4.06a.64.64,0,0,0-.74-.6c-1.85,0-3.69,0-5.54,0-.45,0-.69.16-.76.58-.24,1.46-.51,2.91-.7,4.37-.11.83-.09,1.68-.12,2.53Zm1.28,5.28c0-.3,0-.64,0-1,0-1.5-.27-1.77-1.77-1.78h-7c-2.44,0-2.64.22-2.45,2.64a.27.27,0,0,0,0,.1A57.49,57.49,0,0,1,65.56,42.12Z"/><path class="cls-1" d="M59.7,61.25H55.88a1.87,1.87,0,0,1-1.78-2.79c1.28-2.63,2.61-5.24,3.92-7.86a1.9,1.9,0,0,1,3.47,0c1.3,2.6,2.62,5.19,3.89,7.8a1.88,1.88,0,0,1-1.78,2.85Z"/><path class="cls-1" d="M54.35,74.32V73.17H65.52v1.15Z"/><path class="cls-1" d="M62.41,66.93v1.15H57.48V66.93Z"/><path class="cls-1" d="M57.47,71.19V70H62.4v1.15Z"/><path class="cls-1" d="M57.47,77.45V76.29H62.4v1.15Z"/><path class="cls-1" d="M62.4,79.43v1.16H57.47V79.43Z"/></svg>