<svg id="Layer_1" data-name="Layer 1" xmlns="http://www.w3.org/2000/svg" viewBox="0 0 100 100"><defs><style>.cls-1,.cls-3,.cls-4{fill:none;stroke:#231f20;}.cls-1{stroke-linecap:round;stroke-linejoin:round;stroke-width:2.83px;}.cls-2{fill:#231f20;fill-rule:evenodd;}.cls-3,.cls-4{stroke-miterlimit:10;}.cls-3{stroke-width:0.94px;}.cls-4{stroke-width:0.91px;}</style></defs><title>server</title><path class="cls-1" d="M36.78,77H18.88V19.71h17.9Z"/><path class="cls-2" d="M27.86,72.06a4.55,4.55,0,1,0-4.6-4.59A4.53,4.53,0,0,0,27.86,72.06Z"/><rect class="cls-3" x="22.27" y="22.92" width="11.14" height="35.51" rx="2" ry="2"/><path class="cls-1" d="M59,77H41V19.71H59Z"/><path class="cls-2" d="M50,72.06a4.55,4.55,0,1,0-4.6-4.59A4.53,4.53,0,0,0,50,72.06Z"/><rect class="cls-3" x="44.44" y="22.92" width="11.14" height="35.51" rx="2" ry="2"/><path class="cls-1" d="M81.12,77H63.22V19.71h17.9Z"/><path class="cls-2" d="M72.2,72.06a4.55,4.55,0,1,0-4.6-4.59A4.53,4.53,0,0,0,72.2,72.06Z"/><rect class="cls-3" x="66.61" y="22.92" width="11.14" height="35.51" rx="2" ry="2"/><line class="cls-4" x1="14.07" y1="80.29" x2="85.93" y2="80.29"/></svg>