<svg id="Layer_1" data-name="Layer 1" xmlns="http://www.w3.org/2000/svg" viewBox="0 0 100 100"><defs><style>.cls-1{fill:#231f20;}.cls-2{fill:none;stroke:#231f20;stroke-miterlimit:10;stroke-width:3px;}</style></defs><title>settings</title><path class="cls-1" d="M50,35A15,15,0,1,0,65,50,15,15,0,0,0,50,35Zm0,21.71A6.74,6.74,0,1,1,56.74,50,6.74,6.74,0,0,1,50,56.73Z"/><path class="cls-2" d="M82.85,47.86a2.54,2.54,0,0,0-1.54-2l-6.18-2.2a3.54,3.54,0,0,1-1.9-1.92l-1-2.37a3.56,3.56,0,0,1,0-2.7l2.81-5.9a2.44,2.44,0,0,0-.36-2.47l-3-3a2.44,2.44,0,0,0-2.47-.36l-5.9,2.81a3.56,3.56,0,0,1-2.7,0l-2.37-1a3.55,3.55,0,0,1-1.92-1.9l-2.2-6.18a2.55,2.55,0,0,0-2-1.54s-.91-.08-2.14-.08-2.14.08-2.14.08a2.54,2.54,0,0,0-2,1.54l-2.2,6.18a3.55,3.55,0,0,1-1.92,1.9l-2.36,1a3.56,3.56,0,0,1-2.7,0l-5.91-2.81a2.44,2.44,0,0,0-2.47.36l-3,3a2.44,2.44,0,0,0-.36,2.47l2.81,5.9a3.56,3.56,0,0,1,0,2.7l-1,2.37a3.55,3.55,0,0,1-1.9,1.92l-6.18,2.2a2.55,2.55,0,0,0-1.54,2s-.08.91-.08,2.14.08,2.14.08,2.14a2.54,2.54,0,0,0,1.54,2l6.18,2.2a3.54,3.54,0,0,1,1.9,1.92l1,2.37a3.56,3.56,0,0,1,0,2.7l-2.81,5.9a2.44,2.44,0,0,0,.36,2.47l3,3a2.44,2.44,0,0,0,2.47.36l5.9-2.81a3.56,3.56,0,0,1,2.7,0l2.37,1a3.56,3.56,0,0,1,1.92,1.9l2.2,6.18a2.54,2.54,0,0,0,2,1.54s.9.08,2.13.08,2.14-.08,2.14-.08a2.54,2.54,0,0,0,2-1.54l2.2-6.18a3.54,3.54,0,0,1,1.92-1.9l2.37-1a3.56,3.56,0,0,1,2.7,0l5.9,2.81a2.44,2.44,0,0,0,2.47-.36l3-3a2.44,2.44,0,0,0,.36-2.47l-2.81-5.9a3.56,3.56,0,0,1,0-2.7l1-2.37a3.55,3.55,0,0,1,1.9-1.92l6.18-2.2a2.54,2.54,0,0,0,1.54-2s.08-.9.08-2.13S82.85,47.86,82.85,47.86Z"/></svg>